<svg xmlns="http://www.w3.org/2000/svg" width="53px" height="53px" viewBox="0 0 300 300">
    <path id="Chemin importé" fill="none" stroke="black" strokeWidth="1" d="M 112.50,176.90
           C 112.50,176.90 103.12,172.76 103.12,172.76
             103.12,171.72 96.88,160.34 96.88,160.34
             96.88,160.34 98.44,170.69 98.44,170.69
             98.44,170.69 92.19,168.62 92.19,168.62
             92.19,168.62 89.06,157.24 89.06,157.24
             89.06,158.28 89.06,167.59 89.06,167.59
             89.06,167.59 82.81,165.52 82.81,165.52
             82.81,164.48 78.12,153.10 78.12,153.10
             78.12,153.10 79.69,163.45 79.69,163.45
             79.69,163.45 75.00,161.38 75.00,161.38
             75.00,161.38 68.75,153.10 68.75,153.10
             68.75,153.10 70.31,160.34 70.31,160.34
             70.31,160.34 50.00,154.14 50.00,154.14
             50.00,154.14 68.75,162.41 68.75,162.41
             68.75,162.41 56.25,164.48 56.25,164.48
             56.25,164.48 71.88,163.45 71.88,163.45
             71.88,163.45 78.12,166.55 78.12,166.55
             78.12,166.55 64.06,169.66 64.06,169.66
             64.06,169.66 82.81,167.59 82.81,167.59
             82.81,167.59 89.06,169.66 89.06,169.66
             89.06,169.66 75.00,174.83 75.00,174.83
             75.00,174.83 92.19,171.72 92.19,171.72
             92.19,171.72 96.88,173.79 96.88,173.79
             96.88,173.79 84.38,176.90 84.38,176.90
             84.38,176.90 100.00,174.83 100.00,174.83
             100.00,174.83 109.38,178.97 109.38,178.97
             109.38,178.97 112.50,176.90 112.50,176.90 Z
           M 148.44,300.00
           C 151.56,300.00 154.69,300.00 159.38,300.00
             90.62,223.45 160.94,201.72 164.06,158.28
             164.06,158.28 168.75,154.14 168.75,154.14
             181.25,139.66 201.56,147.93 221.88,147.93
             221.88,147.93 239.06,146.90 239.06,146.90
             239.06,146.90 234.38,144.83 234.38,144.83
             237.50,143.79 242.19,143.79 243.75,142.76
             243.75,142.76 259.38,138.62 259.38,138.62
             259.38,138.62 254.69,137.59 254.69,137.59
             257.81,136.55 260.94,135.52 262.50,134.48
             262.50,134.48 271.88,129.31 271.88,129.31
             271.88,129.31 270.31,129.31 270.31,129.31
             271.88,128.28 271.88,128.28 273.44,127.24
             273.44,127.24 281.25,122.07 281.25,122.07
             281.25,122.07 276.56,121.03 276.56,121.03
             279.69,118.97 282.81,116.90 287.50,114.83
             287.50,114.83 300.00,109.66 300.00,109.66
             300.00,109.66 285.94,106.55 285.94,106.55
             276.56,105.52 268.75,104.48 259.38,103.45
             259.38,103.45 260.94,101.38 260.94,101.38
             260.94,101.38 248.44,101.38 248.44,101.38
             246.88,101.38 245.31,101.38 243.75,102.41
             243.75,102.41 243.75,101.38 243.75,101.38
             243.75,101.38 234.38,102.41 234.38,102.41
             229.69,102.41 226.56,103.45 223.44,104.48
             223.44,104.48 223.44,101.38 223.44,101.38
             223.44,101.38 215.62,103.45 215.62,103.45
             214.06,104.48 212.50,104.48 210.94,105.52
             210.94,105.52 210.94,104.48 210.94,104.48
             210.94,104.48 201.56,109.66 201.56,109.66
             201.56,109.66 201.56,109.66 201.56,109.66
             201.56,109.66 201.56,106.55 201.56,106.55
             201.56,106.55 190.62,114.83 190.62,114.83
             184.38,118.97 179.69,127.24 176.56,133.45
             176.56,134.48 168.75,136.55 160.94,139.66
             159.38,134.48 156.25,128.28 151.56,122.07
             148.44,123.10 145.31,124.14 142.19,124.14
             160.94,150.00 153.12,167.59 140.62,186.21
             134.38,181.03 126.56,178.97 126.56,177.93
             125.00,171.72 121.88,163.45 115.62,158.28
             115.62,158.28 106.25,148.97 106.25,148.97
             106.25,148.97 106.25,152.07 106.25,152.07
             106.25,152.07 106.25,152.07 106.25,152.07
             106.25,152.07 96.88,146.90 96.88,146.90
             96.88,146.90 96.88,146.90 96.88,146.90
             95.31,146.90 93.75,145.86 93.75,145.86
             93.75,145.86 84.38,142.76 84.38,142.76
             84.38,142.76 84.38,144.83 84.38,144.83
             81.25,143.79 78.12,142.76 75.00,141.72
             75.00,141.72 64.06,140.69 64.06,140.69
             64.06,140.69 64.06,141.72 64.06,141.72
             62.50,140.69 60.94,140.69 59.38,140.69
             59.38,140.69 48.44,139.66 48.44,139.66
             48.44,139.66 50.00,141.72 50.00,141.72
             40.62,141.72 31.25,141.72 21.88,142.76
             21.88,142.76 7.81,144.83 7.81,144.83
             7.81,144.83 18.75,151.03 18.75,151.03
             23.44,153.10 26.56,155.17 29.69,158.28
             29.69,158.28 25.00,159.31 25.00,159.31
             25.00,159.31 31.25,164.48 31.25,164.48
             31.25,165.52 32.81,165.52 34.38,166.55
             34.38,166.55 32.81,166.55 32.81,166.55
             32.81,166.55 40.62,171.72 40.62,171.72
             42.19,173.79 45.31,174.83 46.88,175.86
             46.88,175.86 42.19,176.90 42.19,176.90
             42.19,176.90 57.81,182.07 57.81,182.07
             59.38,183.10 64.06,183.10 67.19,184.14
             67.19,184.14 62.50,186.21 62.50,186.21
             62.50,186.21 78.12,188.28 78.12,188.28
             98.44,190.34 120.31,183.10 131.25,198.62
             131.25,198.62 131.25,199.66 131.25,199.66
             115.62,223.45 103.12,251.38 148.44,300.00 Z
           M 164.06,150.00
           C 164.06,147.93 164.06,146.90 162.50,144.83
             168.75,139.66 179.69,139.66 182.81,134.48
             185.94,129.31 190.62,121.03 195.31,116.90
             195.31,117.93 195.31,118.97 195.31,118.97
             198.44,117.93 201.56,113.79 204.69,112.76
             204.69,112.76 204.69,113.79 204.69,113.79
             207.81,112.76 214.06,108.62 217.19,107.59
             217.19,107.59 217.19,109.66 217.19,109.66
             221.88,109.66 229.69,106.55 234.38,106.55
             234.38,106.55 234.38,107.59 234.38,107.59
             237.50,107.59 245.31,106.55 248.44,106.55
             248.44,106.55 246.88,107.59 246.88,107.59
             259.38,107.59 273.44,108.62 284.38,110.69
             276.56,114.83 270.31,118.97 264.06,123.10
             264.06,123.10 268.75,124.14 268.75,124.14
             265.62,126.21 256.25,128.28 253.12,130.34
             253.12,130.34 257.81,131.38 257.81,131.38
             254.69,133.45 242.19,136.55 237.50,137.59
             237.50,137.59 242.19,138.62 242.19,138.62
             237.50,139.66 223.44,140.69 218.75,141.72
             218.75,141.72 221.88,143.79 221.88,143.79
             203.12,143.79 179.69,135.52 164.06,150.00 Z
           M 137.50,190.34
           C 137.50,190.34 134.38,194.48 134.38,194.48
             121.88,178.97 96.88,186.21 79.69,184.14
             79.69,184.14 82.81,182.07 82.81,182.07
             78.12,182.07 64.06,180.00 60.94,177.93
             60.94,177.93 65.62,176.90 65.62,176.90
             60.94,175.86 48.44,171.72 45.31,169.66
             45.31,169.66 50.00,168.62 50.00,168.62
             46.88,166.55 37.50,163.45 35.94,161.38
             35.94,161.38 40.62,161.38 40.62,161.38
             35.94,156.21 29.69,151.03 23.44,146.90
             34.38,145.86 48.44,145.86 59.38,145.86
             59.38,145.86 59.38,144.83 59.38,144.83
             62.50,144.83 70.31,146.90 73.44,147.93
             73.44,147.93 73.44,145.86 73.44,145.86
             78.12,146.90 85.94,150.00 89.06,151.03
             89.06,151.03 89.06,148.97 89.06,148.97
             92.19,150.00 98.44,155.17 101.56,156.21
             101.56,156.21 101.56,155.17 101.56,155.17
             104.69,156.21 107.81,160.34 109.38,162.41
             109.38,162.41 109.38,160.34 110.94,160.34
             114.06,164.48 118.75,172.76 120.31,178.97
             121.88,183.10 132.81,184.14 137.50,190.34 Z
           M 190.62,134.48
           C 190.62,134.48 201.56,130.34 201.56,130.34
             201.56,129.31 207.81,118.97 207.81,118.97
             207.81,118.97 204.69,128.28 204.69,128.28
             204.69,128.28 210.94,127.24 210.94,127.24
             210.94,126.21 217.19,115.86 217.19,116.90
             217.19,116.90 215.62,127.24 215.62,126.21
             215.62,126.21 221.88,124.14 221.88,124.14
             221.88,124.14 228.12,112.76 228.12,112.76
             228.12,112.76 225.00,123.10 225.00,123.10
             225.00,123.10 231.25,121.03 231.25,121.03
             231.25,121.03 239.06,113.79 239.06,113.79
             239.06,113.79 234.38,120.00 234.38,120.00
             234.38,120.00 256.25,115.86 256.25,115.86
             256.25,115.86 237.50,123.10 237.50,123.10
             237.50,123.10 246.88,126.21 246.88,126.21
             246.88,126.21 232.81,123.10 232.81,123.10
             232.81,123.10 225.00,126.21 225.00,126.21
             225.00,126.21 239.06,130.34 239.06,130.34
             239.06,130.34 221.88,127.24 221.88,127.24
             221.88,127.24 215.62,129.31 215.62,129.31
             215.62,129.31 228.12,134.48 228.12,134.48
             228.12,134.48 210.94,130.34 210.94,130.34
             210.94,130.34 206.25,131.38 206.25,131.38
             206.25,131.38 218.75,136.55 218.75,136.55
             218.75,136.55 203.12,132.41 203.12,132.41
             203.12,132.41 192.19,135.52 192.19,135.52
             192.19,135.52 190.62,134.48 190.62,134.48 Z
           M 120.31,121.03
           C 92.19,132.41 68.75,130.34 53.12,111.72
             39.06,96.21 15.62,107.59 0.00,93.10
             9.38,83.79 23.44,80.69 39.06,79.66
             32.81,74.48 31.25,71.38 28.12,66.21
             9.38,61.03 25.00,54.83 40.62,55.86
             32.81,53.79 31.25,48.62 31.25,43.45
             32.81,33.10 46.88,30.00 56.25,23.79
             62.50,19.66 62.50,15.52 71.88,11.38
             79.69,8.28 100.00,6.21 110.94,5.17
             120.31,5.17 128.12,5.17 131.25,10.34
             140.62,-10.34 207.81,3.10 218.75,18.62
             228.12,32.07 225.00,44.48 200.00,56.90
             217.19,50.69 240.62,70.34 250.00,78.62
             234.38,83.79 217.19,83.79 201.56,92.07
             198.44,94.14 178.12,109.66 171.88,109.66
             159.38,122.07 129.69,123.10 120.31,121.03 Z
           M 60.94,69.31
           C 76.56,70.34 85.94,76.55 87.50,82.76
             65.62,69.31 56.25,75.52 37.50,68.28
             51.56,87.93 82.81,117.93 125.00,117.93
             137.50,117.93 170.31,113.79 168.75,96.21
             142.19,92.07 126.56,91.03 103.12,78.62
             68.75,53.79 9.38,58.97 35.94,65.17
             40.62,66.21 48.44,68.28 60.94,69.31 Z
           M 135.94,17.59
           C 151.56,17.59 165.62,12.41 173.44,16.55
             182.81,19.66 185.94,42.41 171.88,53.79
             192.19,50.69 195.31,38.28 195.31,34.14
             204.69,43.45 184.38,56.90 171.88,58.97
             175.00,64.14 176.56,75.52 175.00,82.76
             182.81,71.38 185.94,62.07 198.44,52.76
             207.81,44.48 221.88,38.28 210.94,21.72
             201.56,9.31 148.44,-2.07 139.06,10.34
             137.50,12.41 135.94,12.41 135.94,17.59 Z
           M 120.31,80.69
           C 131.25,85.86 150.00,88.97 165.62,91.03
             168.75,81.72 171.88,74.48 164.06,62.07
             153.12,70.34 137.50,74.48 120.31,80.69 Z
           M 160.94,26.90
           C 173.44,45.52 148.44,53.79 128.12,65.17
             123.44,69.31 115.62,73.45 112.50,76.55
             115.62,76.55 153.12,65.17 164.06,55.86
             171.88,49.66 179.69,26.90 170.31,22.76
             164.06,18.62 156.25,21.72 160.94,26.90 Z
           M 68.75,57.93
           C 67.19,53.79 57.81,41.38 64.06,33.10
             68.75,32.07 78.12,32.07 84.38,33.10
             87.50,27.93 89.06,23.79 95.31,20.69
             104.69,16.55 112.50,18.62 120.31,16.55
             126.56,14.48 131.25,7.24 110.94,9.31
             96.88,10.34 79.69,13.45 75.00,15.52
             67.19,18.62 67.19,21.72 59.38,26.90
             51.56,33.10 39.06,34.14 37.50,42.41
             37.50,46.55 39.06,50.69 45.31,52.76
             50.00,54.83 62.50,57.93 68.75,57.93 Z
           M 175.00,92.07
           C 178.12,97.24 175.00,102.41 175.00,104.48
             175.00,104.48 182.81,99.31 200.00,87.93
             212.50,80.69 229.69,79.66 240.62,77.59
             221.88,62.07 212.50,60.00 204.69,61.03
             189.06,63.10 185.94,83.79 175.00,92.07 Z
           M 9.38,92.07
           C 20.31,102.41 43.75,93.10 59.38,108.62
             71.88,122.07 79.69,126.21 110.94,121.03
             73.44,116.90 46.88,87.93 43.75,83.79
             31.25,84.83 17.19,85.86 9.38,92.07 Z
           M 87.50,63.10
           C 89.06,56.90 75.00,57.93 79.69,41.38
             98.44,52.76 120.31,52.76 134.38,51.72
             110.94,60.00 89.06,51.72 84.38,48.62
             82.81,53.79 95.31,55.86 95.31,65.17
             96.88,68.28 101.56,71.38 107.81,74.48
             129.69,54.83 146.88,55.86 154.69,43.45
             129.69,51.72 109.38,49.66 95.31,43.45
             85.94,39.31 85.94,37.24 70.31,38.28
             68.75,48.62 76.56,60.00 87.50,63.10 Z
           M 117.19,37.24
           C 123.44,41.38 128.12,41.38 137.50,36.21
             131.25,32.07 129.69,34.14 121.88,37.24
             131.25,23.79 142.19,31.03 146.88,37.24
             171.88,24.83 112.50,17.59 117.19,37.24 Z
           M 90.62,35.17
           C 100.00,38.28 101.56,41.38 110.94,40.34
             106.25,31.03 112.50,27.93 117.19,21.72
             104.69,22.76 103.12,22.76 100.00,24.83
             95.31,25.86 93.75,27.93 90.62,35.17 Z
           M 121.88,23.79
           C 125.00,22.76 129.69,22.76 134.38,21.72
             142.19,21.72 148.44,22.76 153.12,25.86
             153.12,24.83 151.56,23.79 151.56,21.72
             153.12,20.69 153.12,19.66 154.69,19.66
             150.00,19.66 145.31,20.69 142.19,20.69
             139.06,20.69 135.94,21.72 132.81,20.69
             132.81,20.69 129.69,20.69 129.69,20.69
             129.69,18.62 129.69,16.55 129.69,14.48
             128.12,16.55 126.56,18.62 121.88,19.66
             121.88,19.66 126.56,19.66 126.56,19.66
             125.00,20.69 123.44,22.76 121.88,23.79 Z
           M 120.31,43.45
           C 117.19,43.45 114.06,43.45 110.94,43.45
             125.00,45.52 135.94,44.48 145.31,42.41
             143.75,41.38 142.19,40.34 140.62,38.28
             134.38,42.41 128.12,44.48 120.31,43.45 Z
           M 151.56,39.31
           C 153.12,39.31 156.25,38.28 159.38,38.28
             159.38,36.21 159.38,35.17 157.81,34.14
             157.81,36.21 154.69,37.24 151.56,39.31 Z" />
</svg>